<svg xmlns="http://www.w3.org/2000/svg" version="1.1" xmlns:xlink="http://www.w3.org/1999/xlink" xmlns:svgjs="http://svgjs.dev/svgjs" width="1000" height="1000" viewBox="0 0 1000 1000"><rect width="1000" height="1000" fill="#ffffff"></rect><g transform="matrix(0.7,0,0,0.7,149.57575917277143,282.1265587044535)"><svg viewBox="0 0 396 247" data-background-color="#005f73" preserveAspectRatio="xMidYMid meet" height="623" width="1000" xmlns="http://www.w3.org/2000/svg" xmlns:xlink="http://www.w3.org/1999/xlink"><g id="tight-bounds" transform="matrix(1,0,0,1,0.23999909654645535,-0.09999999999999432)"><svg viewBox="0 0 395.52 247.2" height="247.2" width="395.52"><g><svg></svg></g><g><svg viewBox="0 0 395.52 247.2" height="247.2" width="395.52"><g transform="matrix(1,0,0,1,0,98.8777443197372)"><svg viewBox="0 0 395.52 49.44451136052559" height="49.44451136052559" width="395.52"><g><svg viewBox="0 0 395.52 49.44451136052559" height="49.44451136052559" width="395.52"><g><svg viewBox="0 0 395.52 49.44451136052559" height="49.44451136052559" width="395.52"><g id="textblocktransform"><svg viewBox="0 0 395.52 49.44451136052559" height="49.44451136052559" width="395.52" id="textblock"><g><svg viewBox="0 0 395.52 49.44451136052559" height="49.44451136052559" width="395.52"><g transform="matrix(1,0,0,1,0,0)"><svg width="395.52" viewBox="-0.10000000149011612 -33.45000076293945 267.5299987792969 33.45000076293945" height="49.44451136052559" data-palette-color="#ffffff"><path d="M10.69-33.45L18.21-33.45Q20.68-33.45 22.68-32.71 24.68-31.98 26.09-30.71 27.49-29.44 28.25-27.75 29-26.05 29-24.15L29-24.15 29-9.3Q29-7.4 28.25-5.7 27.49-4 26.09-2.73 24.68-1.46 22.68-0.73 20.68 0 18.21 0L18.21 0 10.69 0Q8.23 0 6.23-0.73 4.22-1.46 2.82-2.73 1.42-4 0.66-5.7-0.1-7.4-0.1-9.3L-0.1-9.3-0.1-24.15Q-0.1-26.05 0.66-27.75 1.42-29.44 2.82-30.71 4.22-31.98 6.23-32.71 8.23-33.45 10.69-33.45L10.69-33.45ZM19.09-18.41L19.46-17.09 19.46-11.06 22.05-11.06 22.05-17.36 21.19-19.6 18.41-20.61 21.09-21.9 21.85-24.1 21.85-26.81 21.56-28.86 19.95-30.91 17.5-31.25 8.4-31.25 8.4-11.06 11.01-11.06 11.01-19.19 17.36-19.19 19.09-18.41ZM11.01-28.66L17.36-28.66 19.09-27.91 19.26-26.49 19.26-23.9 18.9-22.56 17.36-21.8 11.01-21.8 11.01-28.66ZM39.6-33.45L47.12-33.45Q49.58-33.45 51.58-32.71 53.59-31.98 54.99-30.71 56.39-29.44 57.15-27.75 57.91-26.05 57.91-24.15L57.91-24.15 57.91-9.3Q57.91-7.4 57.15-5.7 56.39-4 54.99-2.73 53.59-1.46 51.58-0.73 49.58 0 47.12 0L47.12 0 39.6 0Q37.13 0 35.13-0.73 33.13-1.46 31.72-2.73 30.32-4 29.56-5.7 28.81-7.4 28.81-9.3L28.81-9.3 28.81-24.15Q28.81-26.05 29.56-27.75 30.32-29.44 31.72-30.71 33.13-31.98 35.13-32.71 37.13-33.45 39.6-33.45L39.6-33.45ZM52.15-14.99L52.15-27.29 51.8-29.35 50.27-30.91 47.75-31.25 41.21-31.25 38.72-30.91 37.16-29.35 36.86-27.29 36.86-14.99 37.16-12.89 38.77-11.35 41.21-11.06 47.75-11.06 50.27-11.35 51.8-12.89 52.15-14.99ZM49.56-15.26L49.22-13.89 47.6-13.65 41.35-13.65 39.77-13.89 39.4-15.36 39.4-27.05 39.65-28.39 41.35-28.66 47.6-28.66 49.31-28.39 49.56-26.95 49.56-15.26ZM73.36-20.29L69.01-31.25 65.96-31.25 72.07-16.75 72.07-11.06 74.65-11.06 74.65-16.7 80.85-31.25 77.8-31.25 73.36-20.29ZM68.5-33.45L76.02-33.45Q78.49-33.45 80.49-32.71 82.49-31.98 83.89-30.71 85.3-29.44 86.05-27.75 86.81-26.05 86.81-24.15L86.81-24.15 86.81-9.3Q86.81-7.4 86.05-5.7 85.3-4 83.89-2.73 82.49-1.46 80.49-0.73 78.49 0 76.02 0L76.02 0 68.5 0Q66.04 0 64.03-0.73 62.03-1.46 60.63-2.73 59.22-4 58.47-5.7 57.71-7.4 57.71-9.3L57.71-9.3 57.71-24.15Q57.71-26.05 58.47-27.75 59.22-29.44 60.63-30.71 62.03-31.98 64.03-32.71 66.04-33.45 68.5-33.45L68.5-33.45ZM105.51-11.35L107.93-11.08 107.93-16.65 107.93-27.34 107.93-29.39 106.27-30.96 103.83-31.25 98.26-31.25 95.4-30.91 96.01-28.25 98.31-28.71 103.75-28.71 105.22-28.39 105.56-27.1 105.56-21.41 103.83-21.7 98.26-21.7 95.82-21.34 94.26-19.8 93.91-17.8 93.91-14.94 94.26-12.89 95.82-11.35 98.26-11.06 103.61-11.06 105.51-11.35ZM105.56-15.21L105.56-13.89 103.65-13.65 98.41-13.65 96.87-13.89 96.53-15.36 96.53-17.46 96.72-18.85 98.41-19.09 103.7-19.09 105.56-18.9 105.56-15.21ZM97.4-33.45L104.92-33.45Q107.39-33.45 109.39-32.71 111.39-31.98 112.8-30.71 114.2-29.44 114.96-27.75 115.72-26.05 115.72-24.15L115.72-24.15 115.72-9.3Q115.72-7.4 114.96-5.7 114.2-4 112.8-2.73 111.39-1.46 109.39-0.73 107.39 0 104.92 0L104.92 0 97.4 0Q94.94 0 92.94-0.73 90.93-1.46 89.53-2.73 88.13-4 87.37-5.7 86.61-7.4 86.61-9.3L86.61-9.3 86.61-24.15Q86.61-26.05 87.37-27.75 88.13-29.44 89.53-30.71 90.93-31.98 92.94-32.71 94.94-33.45 97.4-33.45L97.4-33.45ZM136.66-11.06L136.66-13.65 129.16-13.65 129.16-31.25 126.58-31.25 126.58-11.06 136.66-11.06ZM126.31-33.45L133.83-33.45Q136.29-33.45 138.3-32.71 140.3-31.98 141.7-30.71 143.11-29.44 143.86-27.75 144.62-26.05 144.62-24.15L144.62-24.15 144.62-9.3Q144.62-7.4 143.86-5.7 143.11-4 141.7-2.73 140.3-1.46 138.3-0.73 136.29 0 133.83 0L133.83 0 126.31 0Q123.84 0 121.84-0.73 119.84-1.46 118.43-2.73 117.03-4 116.27-5.7 115.52-7.4 115.52-9.3L115.52-9.3 115.52-24.15Q115.52-26.05 116.27-27.75 117.03-29.44 118.43-30.71 119.84-31.98 121.84-32.71 123.84-33.45 126.31-33.45L126.31-33.45ZM162.41-33.45L169.93-33.45Q172.4-33.45 174.4-32.71 176.4-31.98 177.8-30.71 179.21-29.44 179.97-27.75 180.72-26.05 180.72-24.15L180.72-24.15 180.72-9.3Q180.72-7.4 179.97-5.7 179.21-4 177.8-2.73 176.4-1.46 174.4-0.73 172.4 0 169.93 0L169.93 0 162.41 0Q159.95 0 157.94-0.73 155.94-1.46 154.54-2.73 153.13-4 152.38-5.7 151.62-7.4 151.62-9.3L151.62-9.3 151.62-24.15Q151.62-26.05 152.38-27.75 153.13-29.44 154.54-30.71 155.94-31.98 157.94-32.71 159.95-33.45 162.41-33.45L162.41-33.45ZM170.81-18.41L171.18-17.09 171.18-11.06 173.76-11.06 173.76-17.36 172.91-19.6 170.13-20.61 172.81-21.9 173.57-24.1 173.57-26.81 173.28-28.86 171.66-30.91 169.22-31.25 160.12-31.25 160.12-11.06 162.73-11.06 162.73-19.19 169.08-19.19 170.81-18.41ZM162.73-28.66L169.08-28.66 170.81-27.91 170.98-26.49 170.98-23.9 170.61-22.56 169.08-21.8 162.73-21.8 162.73-28.66ZM191.32-33.45L198.84-33.45Q201.3-33.45 203.3-32.71 205.3-31.98 206.71-30.71 208.11-29.44 208.87-27.75 209.63-26.05 209.63-24.15L209.63-24.15 209.63-9.3Q209.63-7.4 208.87-5.7 208.11-4 206.71-2.73 205.3-1.46 203.3-0.73 201.3 0 198.84 0L198.84 0 191.32 0Q188.85 0 186.85-0.73 184.85-1.46 183.44-2.73 182.04-4 181.28-5.7 180.52-7.4 180.52-9.3L180.52-9.3 180.52-24.15Q180.52-26.05 181.28-27.75 182.04-29.44 183.44-30.71 184.85-31.98 186.85-32.71 188.85-33.45 191.32-33.45L191.32-33.45ZM203.86-14.99L203.86-27.29 203.52-29.35 201.98-30.91 199.47-31.25 192.93-31.25 190.44-30.91 188.87-29.35 188.58-27.29 188.58-14.99 188.87-12.89 190.49-11.35 192.93-11.06 199.47-11.06 201.98-11.35 203.52-12.89 203.86-14.99ZM201.28-15.26L200.93-13.89 199.32-13.65 193.07-13.65 191.49-13.89 191.12-15.36 191.12-27.05 191.36-28.39 193.07-28.66 199.32-28.66 201.03-28.39 201.28-26.95 201.28-15.26ZM220.22-33.45L227.74-33.45Q230.2-33.45 232.21-32.71 234.21-31.98 235.61-30.71 237.02-29.44 237.77-27.75 238.53-26.05 238.53-24.15L238.53-24.15 238.53-9.3Q238.53-7.4 237.77-5.7 237.02-4 235.61-2.73 234.21-1.46 232.21-0.73 230.2 0 227.74 0L227.74 0 220.22 0Q217.75 0 215.75-0.73 213.75-1.46 212.35-2.73 210.94-4 210.19-5.7 209.43-7.4 209.43-9.3L209.43-9.3 209.43-24.15Q209.43-26.05 210.19-27.75 210.94-29.44 212.35-30.71 213.75-31.98 215.75-32.71 217.75-33.45 220.22-33.45L220.22-33.45ZM228.74-31.25L226.18-31.25 226.18-15.41 225.83-13.94 224.22-13.65 220.59-13.65 220.59-11.06 224.37-11.06 226.84-11.4 228.74-12.89 228.74-31.25ZM257.23-11.35L259.65-11.08 259.65-16.65 259.65-27.34 259.65-29.39 257.99-30.96 255.54-31.25 249.98-31.25 247.12-30.91 247.73-28.25 250.03-28.71 255.47-28.71 256.94-28.39 257.28-27.1 257.28-21.41 255.54-21.7 249.98-21.7 247.54-21.34 245.97-19.8 245.63-17.8 245.63-14.94 245.97-12.89 247.54-11.35 249.98-11.06 255.32-11.06 257.23-11.35ZM257.28-15.21L257.28-13.89 255.37-13.65 250.12-13.65 248.59-13.89 248.24-15.36 248.24-17.46 248.44-18.85 250.12-19.09 255.42-19.09 257.28-18.9 257.28-15.21ZM249.12-33.45L256.64-33.45Q259.11-33.45 261.11-32.71 263.11-31.98 264.52-30.71 265.92-29.44 266.68-27.75 267.43-26.05 267.43-24.15L267.43-24.15 267.43-9.3Q267.43-7.4 266.68-5.7 265.92-4 264.52-2.73 263.11-1.46 261.11-0.73 259.11 0 256.64 0L256.64 0 249.12 0Q246.66 0 244.66-0.73 242.65-1.46 241.25-2.73 239.85-4 239.09-5.7 238.33-7.4 238.33-9.3L238.33-9.3 238.33-24.15Q238.33-26.05 239.09-27.75 239.85-29.44 241.25-30.71 242.65-31.98 244.66-32.71 246.66-33.45 249.12-33.45L249.12-33.45Z" opacity="1" transform="matrix(1,0,0,1,0,0)" fill="#000000" class="undefined-text-0" data-fill-palette-color="primary" id="text-0"></path></svg></g></svg></g></svg></g></svg></g></svg></g></svg></g><g mask="url(#f20f37b0-f172-43b8-ac1d-bcd79c7354c0)"><g transform="matrix(2.477593660464444, 0, 0, 2.477593660464444, 79.26040503239257, 1)"><svg xmlns="http://www.w3.org/2000/svg" xmlns:xlink="http://www.w3.org/1999/xlink" version="1.1" x="0" y="0" viewBox="0 0 95.6570053100586 98.96699523925781" enable-background="new 0 0 95.66 98.967" xml:space="preserve" width="95.6570053100586" height="98.96699523925781" class="icon-none" data-fill-palette-color="accent" id="none"><path fill="#000000" d="M92.554 21.094c-1.717 0-3.108 1.392-3.108 3.107 0 1.347 0.861 2.482 2.06 2.913L70.36 83.265l0.915-67.258c0.063 0.003 0.119 0.019 0.184 0.019 1.715 0 3.104-1.392 3.104-3.107 0-1.717-1.39-3.107-3.104-3.107-1.717 0-3.107 1.39-3.107 3.107 0 1.558 1.15 2.835 2.646 3.061L56.468 79.162 48.049 6.184c1.572-0.155 2.808-1.464 2.808-3.078C50.857 1.39 49.462 0 47.748 0c-1.714 0-3.108 1.39-3.108 3.106 0 1.592 1.201 2.888 2.743 3.071l-8.257 72.985L24.593 15.969c1.45-0.263 2.551-1.526 2.551-3.051 0-1.717-1.391-3.107-3.106-3.107s-3.109 1.39-3.109 3.107c0 1.715 1.394 3.107 3.109 3.107 0.096 0 0.186-0.02 0.28-0.028l0.916 67.268L4.095 27.132c1.229-0.414 2.12-1.563 2.12-2.931 0-1.715-1.392-3.107-3.108-3.107C1.392 21.094 0 22.486 0 24.201c0 1.716 1.392 3.107 3.106 3.107 0.251 0 0.493-0.038 0.728-0.095l9.86 60.83H81.9l9.862-60.849c0.255 0.067 0.516 0.114 0.791 0.114 1.714 0 3.104-1.391 3.104-3.107C95.66 22.486 94.268 21.094 92.554 21.094z" data-fill-palette-color="accent"></path><rect x="13.639" y="91.771" fill="#000000" width="68.461" height="7.196" data-fill-palette-color="accent"></rect></svg></g></g></svg></g><defs><mask id="85c798ca-e327-4eb1-b4c2-7dbc475740b7"><rect width="640" height="400" fill="white"></rect><rect width="348.05760000000004" height="58.23186903073638" fill="black" y="94.4840654846318" x="23.731199999999973" id="transform-me"></rect></mask><mask id="692d345a-fa20-4fc2-8708-8dc932c70f4c"><rect width="640" height="400" fill="white"></rect><rect width="348.05760000000004" height="58.23186903073638" fill="black" y="94.4840654846318" x="23.731199999999973" id="transform-me"></rect></mask><mask id="ff50685d-26e4-412f-91f8-b56407ddffe2"><rect width="640" height="400" fill="white"></rect><rect width="348.05760000000004" height="58.23186903073638" fill="black" y="94.4840654846318" x="23.731199999999973" id="transform-me"></rect></mask><mask id="be856168-530c-4513-9bc2-09efef420a24"><rect width="640" height="400" fill="white"></rect><rect width="348.05760000000004" height="58.23186903073638" fill="black" y="94.4840654846318" x="23.731199999999973" id="transform-me"></rect></mask><mask id="eb6b32fe-736a-44a4-ac4d-dd4b6d639af3"><rect width="640" height="400" fill="white"></rect><rect width="348.05760000000004" height="58.23186903073638" fill="black" y="94.4840654846318" x="23.731199999999973" id="transform-me"></rect></mask><mask id="58ad744b-0e7e-416d-9418-67874ccc8998"><rect width="640" height="400" fill="white"></rect><rect width="348.05760000000004" height="58.23186903073638" fill="black" y="94.4840654846318" x="23.731199999999973" id="transform-me"></rect></mask><mask id="d70fe724-76e8-4413-a18b-09dc99270f8f"><rect width="640" height="400" fill="white"></rect><rect width="348.05760000000004" height="58.23186903073638" fill="black" y="94.4840654846318" x="23.731199999999973" id="transform-me"></rect></mask><mask id="8e953ff9-e9c5-462b-a05b-a69e56d41de4"><rect width="640" height="400" fill="white"></rect><rect width="348.05760000000004" height="58.23186903073638" fill="black" y="94.4840654846318" x="23.731199999999973" id="transform-me"></rect></mask><mask id="92b3ac6b-6d0d-44c5-82a3-b886ff2b3f12"><rect width="640" height="400" fill="white"></rect><rect width="348.05760000000004" height="58.23186903073638" fill="black" y="94.4840654846318" x="23.731199999999973" id="transform-me"></rect></mask><mask id="50d2b6ca-6fe6-4cb8-b46d-9a3cf5ae6dd4"><rect width="640" height="400" fill="white"></rect><rect width="348.05760000000004" height="58.23186903073638" fill="black" y="94.4840654846318" x="23.731199999999973" id="transform-me"></rect></mask><mask id="c7962f00-af65-4de8-a532-749fb0290971"><rect width="640" height="400" fill="white"></rect><rect width="348.05760000000004" height="58.23186903073638" fill="black" y="94.4840654846318" x="23.731199999999973" id="transform-me"></rect></mask><mask id="a0de8d8c-899d-47c7-9299-795997b77efa"><rect width="640" height="400" fill="white"></rect><rect width="348.05760000000004" height="58.23186903073638" fill="black" y="94.4840654846318" x="23.731199999999973" id="transform-me"></rect></mask><mask id="7bd2b01b-8385-4a00-bce9-c51a44f09d3f"><rect width="640" height="400" fill="white"></rect><rect width="174.02880000000002" height="29.11593451536819" fill="black" y="109.0420327423159" x="110.74559999999998" id="transform-me"></rect></mask><mask id="28b26272-0a0c-43ba-b183-ec90b1ea69a5"><rect width="640" height="400" fill="white"></rect><rect width="232.0384" height="38.82124602049092" fill="black" y="104.18937698975454" x="81.7408" id="transform-me"></rect></mask><mask id="140ffaf6-d12f-400f-8c75-2f2bf3e15da9"><rect width="640" height="400" fill="white"></rect><rect width="348.05760000000004" height="58.23186903073638" fill="black" y="94.4840654846318" x="23.731199999999973" id="transform-me"></rect></mask><mask id="2a6aa454-6bf7-4345-952b-3e40390082e7"><rect width="640" height="400" fill="white"></rect><rect width="435.072" height="72.78983628842047" fill="black" y="87.20508185578976" x="-19.77600000000001" id="transform-me"></rect></mask><mask id="6425a5a9-d837-4a0b-adbf-dd15dd6ef930"><rect width="640" height="400" fill="white"></rect><rect width="435.072" height="72.78983628842047" fill="black" y="87.20508185578976" x="-19.77600000000001" id="transform-me"></rect></mask><mask id="f6db00f9-10ed-4c73-b0f0-c32395c315ab"><rect width="640" height="400" fill="white"></rect><rect width="435.072" height="72.78983628842047" fill="black" y="87.20508185578976" x="-19.77600000000001" id="transform-me"></rect></mask><mask id="a7af4aae-d217-4e5a-99cb-50dd27e9fb73"><rect width="640" height="400" fill="white"></rect><rect width="435.072" height="72.78983628842047" fill="black" y="87.20508185578976" x="-19.77600000000001" id="transform-me"></rect></mask><mask id="e5d83951-2cfb-4629-855a-5a83c358ae3b"><rect width="640" height="400" fill="white"></rect><rect width="435.072" height="72.78983628842047" fill="black" y="87.20508185578976" x="-19.77600000000001" id="transform-me"></rect></mask><mask id="b154a090-b8ef-4ad4-a79a-51e37d500657"><rect width="640" height="400" fill="white"></rect><rect width="435.072" height="72.78983628842047" fill="black" y="87.20508185578976" x="-19.77600000000001" id="transform-me"></rect></mask><mask id="f7168f28-9d86-4108-ba1e-6d3ebed15cf2"><rect width="640" height="400" fill="white"></rect><rect width="435.072" height="72.78983628842047" fill="black" y="87.20508185578976" x="-19.77600000000001" id="transform-me"></rect></mask><mask id="f440a71a-f073-4ef4-b0d6-6e9ea59a6e4c"><rect width="640" height="400" fill="white"></rect><rect width="435.072" height="72.78983628842047" fill="black" y="87.20508185578976" x="-19.77600000000001" id="transform-me"></rect></mask><mask id="9209d26c-6e56-4a46-8934-50a5166ba1de"><rect width="640" height="400" fill="white"></rect><rect width="435.072" height="72.78983628842047" fill="black" y="87.20508185578976" x="-19.77600000000001" id="transform-me"></rect></mask><mask id="c99eb7f3-24f0-4344-b7be-a1ca33eef1f9"><rect width="640" height="400" fill="white"></rect><rect width="435.072" height="72.78983628842047" fill="black" y="87.20508185578976" x="-19.77600000000001" id="transform-me"></rect></mask><mask id="f25d8fd8-521d-4ded-9375-417b7fe5bb75"><rect width="640" height="400" fill="white"></rect><rect width="435.072" height="72.78983628842047" fill="black" y="87.20508185578976" x="-19.77600000000001" id="transform-me"></rect></mask><mask id="f02999f3-d90c-4fe9-a1d8-f529f952bb96"><rect width="640" height="400" fill="white"></rect><rect width="435.072" height="72.78983628842047" fill="black" y="87.20508185578976" x="-19.77600000000001" id="transform-me"></rect></mask><mask id="b3fb2c37-34ac-4d76-b760-1b628d82f6d0"><rect width="640" height="400" fill="white"></rect><rect width="435.072" height="72.78983628842047" fill="black" y="87.20508185578976" x="-19.77600000000001" id="transform-me"></rect></mask><mask id="e0c0a5c8-9930-406c-b0b1-cecc0415ddba"><rect width="640" height="400" fill="white"></rect><rect width="435.072" height="72.78983628842047" fill="black" y="87.20508185578976" x="-19.77600000000001" id="transform-me"></rect></mask><mask id="58e2e218-1689-4f0c-ab7f-8a24b21694b0"><rect width="640" height="400" fill="white"></rect><rect width="435.072" height="72.78983628842047" fill="black" y="87.20508185578976" x="-19.77600000000001" id="transform-me"></rect></mask><mask id="5650d6e2-973f-4afd-bf4b-3ceb0da8f199"><rect width="640" height="400" fill="white"></rect><rect width="435.072" height="72.78983628842047" fill="black" y="87.20508185578976" x="-19.77600000000001" id="transform-me"></rect></mask><mask id="f20f37b0-f172-43b8-ac1d-bcd79c7354c0"><rect width="640" height="400" fill="white"></rect><rect width="435.072" height="72.78983628842047" fill="black" y="87.20508185578976" x="-19.77600000000001" id="transform-me"></rect></mask></defs></svg><rect width="395.52" height="247.2" fill="none" stroke="none" visibility="hidden"></rect></g></svg></g></svg>