<svg width="34" height="31" viewBox="0 0 34 31" fill="none" xmlns="http://www.w3.org/2000/svg">
<path d="M25.612 29.9811H11.7525C10.8693 29.9811 10.1533 29.2968 10.1533 28.4528V27.9434H9.08716V28.4528C9.08898 29.859 10.2811 30.9983 11.7525 31H25.612C27.0834 30.9983 28.2755 29.859 28.2773 28.4528V7.05632C28.2755 5.65014 27.0834 4.51087 25.612 4.50912H25.079V5.528H25.612C26.4952 5.528 27.2112 6.21232 27.2112 7.05632V28.4528C27.2112 29.2968 26.4952 29.9811 25.612 29.9811Z" fill="#1FB3D5"/>
<path d="M22.2256 0H8.36599C6.8946 0.00181535 5.70251 1.18957 5.70068 2.65559V24.9626C5.70251 26.4286 6.8946 27.6163 8.36599 27.6182H22.2256C23.697 27.6163 24.889 26.4286 24.8909 24.9626V2.65559C24.889 1.18957 23.697 0.00181535 22.2256 0ZM23.8248 24.9626C23.8248 25.8425 23.1087 26.5559 22.2256 26.5559H8.36599C7.48285 26.5559 6.76681 25.8425 6.76681 24.9626V2.65559C6.76681 1.77567 7.48285 1.06224 8.36599 1.06224H22.2256C23.1087 1.06224 23.8248 1.77567 23.8248 2.65559V24.9626Z" fill="#1FB3D5"/>
<path d="M18.682 14.0525V13.9803C18.6823 13.3912 18.4709 12.8222 18.0878 12.3791L14.8468 8.62729C14.7437 8.51711 14.6001 8.45456 14.45 8.45456C14.2999 8.45456 14.1565 8.51711 14.0531 8.62729L10.8122 12.3791C10.4283 12.8219 10.2164 13.3909 10.2159 13.9803V14.0525C10.2087 14.9015 10.6425 15.6921 11.3584 16.1336C12.0743 16.5751 12.9667 16.6028 13.7082 16.2066C13.5651 16.6531 13.3506 17.0726 13.0732 17.4484L12.4384 18.306C12.318 18.4685 12.2986 18.6858 12.3882 18.8674C12.4779 19.049 12.6611 19.1636 12.8616 19.1636H16.0363C16.2368 19.1636 16.42 19.049 16.5097 18.8674C16.5993 18.6858 16.5799 18.4685 16.4595 18.306L15.8247 17.4484C15.5475 17.0723 15.3331 16.6528 15.1897 16.2066C15.9312 16.6028 16.8236 16.5751 17.5395 16.1336C18.2554 15.6921 18.6892 14.9015 18.682 14.0525V14.0525ZM13.9198 18.0917C14.1239 17.8156 14.3012 17.5201 14.449 17.2095C14.5967 17.5201 14.774 17.8156 14.9781 18.0917H13.9198ZM14.8231 14.4969C14.7737 14.4471 14.7153 14.4079 14.651 14.3812C14.5218 14.326 14.3761 14.326 14.2469 14.3812C14.1826 14.4079 14.1242 14.4471 14.0748 14.4969L13.5648 15.0135C13.1809 15.4021 12.604 15.5186 12.1025 15.3082C11.6013 15.0977 11.2742 14.6023 11.2742 14.0525V13.9803C11.2742 13.651 11.392 13.3331 11.6059 13.0852L14.449 9.79424L17.292 13.0852C17.5059 13.3331 17.6237 13.651 17.6237 13.9803V14.0525C17.6237 14.6023 17.2966 15.0977 16.7954 15.3082C16.2939 15.5186 15.717 15.4021 15.3331 15.0135L14.8231 14.4969Z" fill="#1FB3D5"/>
<path d="M8.33452 6.19997H9.83916C9.96406 6.20024 10.0809 6.10725 10.1509 5.95234C10.221 5.79744 10.2352 5.60044 10.1887 5.42683L9.43637 2.60944C9.37925 2.39511 9.24076 2.25452 9.08684 2.25452C8.93292 2.25452 8.79444 2.39511 8.73731 2.60944L7.98499 5.42683C7.93852 5.60044 7.95267 5.79744 8.02283 5.95234C8.09281 6.10725 8.20962 6.20024 8.33452 6.19997ZM9.08684 4.33592L9.28356 5.07301H8.89013L9.08684 4.33592Z" fill="#1FB3D5"/>
<path d="M10.2157 9.05967C10.2162 8.75016 10.1205 8.45338 9.94965 8.23493L9.35292 7.4687C9.20594 7.28021 8.96784 7.28021 8.82086 7.4687L8.22414 8.23493C7.98438 8.54232 7.89803 8.99574 8.00037 9.41047C8.10288 9.82519 8.37681 10.1319 8.71063 10.2057V10.7091H9.46315V10.2057C9.89729 10.1088 10.2148 9.62562 10.2157 9.05967ZM9.30736 9.25972H8.86643C8.80341 9.25972 8.74646 9.21112 8.72239 9.13634C8.69814 9.06156 8.71155 8.97545 8.75619 8.91812L9.08689 8.49349L9.41759 8.91812C9.46223 8.97545 9.47565 9.06156 9.45139 9.13634C9.42733 9.21112 9.37037 9.25972 9.30736 9.25972Z" fill="#1FB3D5"/>
<path d="M21.9744 21.4182H19.3413C19.1227 21.418 18.9183 21.4977 18.7958 21.6305C18.673 21.7632 18.6483 21.9321 18.7296 22.0809L20.0462 24.4958C20.1461 24.6795 20.3885 24.8 20.6578 24.8C20.9272 24.8 21.1695 24.6795 21.2695 24.4958L22.5861 22.0809C22.6674 21.9321 22.6426 21.7632 22.5199 21.6305C22.3974 21.4977 22.193 21.418 21.9744 21.4182ZM20.6578 23.016L20.3136 22.3842H21.0021L20.6578 23.016Z" fill="#1FB3D5"/>
<path d="M21.3163 17.4125V16.9091H19.9994V17.4125C19.4152 17.4864 18.9359 17.7931 18.7565 18.2078C18.5774 18.6225 18.7285 19.0759 19.1481 19.3833L20.1923 20.1496C20.4495 20.3381 20.8662 20.3381 21.1234 20.1496L22.1676 19.3833C22.5871 19.0759 22.7382 18.6225 22.5592 18.2078C22.3798 17.7931 21.9004 17.4864 21.3163 17.4125V17.4125ZM21.2365 18.7001L20.6578 19.1248L20.0791 18.7001C20.001 18.6428 19.9775 18.5567 20.02 18.4819C20.0621 18.4071 20.1618 18.3585 20.272 18.3585H21.0436C21.1539 18.3585 21.2536 18.4071 21.2957 18.4819C21.3381 18.5567 21.3147 18.6428 21.2365 18.7001Z" fill="#1FB3D5"/>
<path d="M3.4419 3.39885C3.44189 2.79374 2.61704 2.61387 2.36444 3.1639L0.0531941 8.19658C-0.160225 8.66129 0.306391 9.1469 0.780157 8.95312L2.31089 8.32704L2.31089 12.9959C2.31089 13.3072 2.56358 13.5596 2.8753 13.5596C3.18702 13.5596 3.43972 13.3072 3.43972 12.9959L3.43972 7.53613C3.44118 7.51963 3.44193 7.50297 3.44193 7.48619L3.4419 3.39885Z" fill="#1FB3D5"/>
<path d="M30.5581 27.6149C30.5581 28.22 31.383 28.3999 31.6356 27.8499L33.9468 22.8172C34.1603 22.3525 33.6936 21.8669 33.2199 22.0606L31.6891 22.6867L31.6891 18.0178C31.6891 17.7065 31.4365 17.4542 31.1247 17.4542C30.813 17.4542 30.5603 17.7065 30.5603 18.0178L30.5603 23.4776C30.5589 23.4941 30.5581 23.5108 30.5581 23.5276L30.5581 27.6149Z" fill="#1FB3D5"/>
</svg>
