<?xml version="1.0" encoding="utf-8"?>
<!-- Generator: Adobe Illustrator 22.1.0, SVG Export Plug-In . SVG Version: 6.00 Build 0)  -->
<svg version="1.1" id="Слой_1" xmlns="http://www.w3.org/2000/svg" xmlns:xlink="http://www.w3.org/1999/xlink" x="0px" y="0px"
	 viewBox="0 0 460 460" style="enable-background:new 0 0 460 460;" xml:space="preserve">
<style type="text/css">
	.st0{fill:#1FB3D5;}
</style>
<path class="st0" d="M250.3,427.2l-1.8-15.9c-15,1.7-30.2,0.1-44.5-4.6l-5,15.2c12.2,4,25,6.1,37.9,6.1
	C241.4,428,245.9,427.7,250.3,427.2z"/>
<path class="st0" d="M340.6,308.2c0.1,27.5-10.9,54-30.4,73.4c-5.2,5.2-11,9.9-17.2,13.9l8.7,13.4c7.1-4.6,13.8-10,19.8-16
	c31.4-31.4,42.9-77.6,29.7-120c-13.1-42.4-48.6-74.1-92.3-82.3l-2.9,15.7C305,215.5,340.6,258.3,340.6,308.2z"/>
<path class="st0" d="M99.6,185.7l-20.9,20.9c-2.8,2.8-3.1,7.1-0.8,10.3l20.8,29c-30.1,66.8-8.3,145.5,52,187.2
	c60.3,41.6,141.7,34.3,193.5-17.5s59.2-133.2,17.5-193.5c-41.6-60.3-120.4-82.1-187.2-52l-29-20.8c-3.2-2.3-7.5-1.9-10.3,0.8
	L111,174.3l-14-11.3c-6.3-5-8.7-13.5-6.1-21.1s9.8-12.7,17.9-12.7h105.7c19.3,0,34.9-15.7,35-35v-1.2l13,5.2
	c2.3,0.9,4.8,0.7,6.9-0.5c2.1-1.2,3.6-3.3,3.9-5.8l3.3-22.4l17.7-14c1.9-1.5,3-3.8,3-6.3s-1.1-4.8-3-6.3l-17.7-14l-3.3-22.4
	c-0.4-2.4-1.8-4.5-3.9-5.8c-2.1-1.2-4.7-1.4-6.9-0.5l-21,8.3l-21-8.4c-2.3-0.9-4.8-0.7-6.9,0.5c-2.1,1.2-3.6,3.3-3.9,5.8l-3.2,22.4
	l-17.7,14c-1.9,1.5-3,3.8-3,6.3s1.1,4.8,3,6.3l17.7,14l3.3,22.4c0.4,2.4,1.8,4.5,3.9,5.8c2.1,1.2,4.7,1.4,6.9,0.5l13-5.2v1.2
	c0,10.5-8.5,19-19,19H108.8c-14.8,0-28.1,9.3-33,23.3c-4.9,14-0.4,29.6,11.2,38.8L99.6,185.7z M141.7,166.2l27.3,19.5
	c2.4,1.7,5.5,2,8.1,0.7c59.6-29.2,131.5-11,170.1,42.9c38.6,54,32.5,127.9-14.4,174.9c-46.9,46.9-120.9,53-174.9,14.5
	c-54-38.6-72.2-110.5-43-170.1c1.3-2.6,1-5.8-0.7-8.2l-19.5-27.3L141.7,166.2z M224,79.8l-2.3-15.5c-0.3-2-1.4-3.9-3-5.1l-12.3-9.7
	l12.3-9.7c1.6-1.3,2.7-3.1,3-5.1l2.3-15.5l14.5,5.8c1.9,0.8,4,0.8,5.9,0l14.5-5.8l2.3,15.5c0.3,2,1.4,3.9,3,5.1l12.3,9.7l-12.3,9.7
	c-1.6,1.3-2.7,3.1-3,5.1L259,79.8L244.4,74c-1.9-0.8-4-0.8-5.9,0L224,79.8z"/>
</svg>
