<svg id="Режим_изоляции" data-name="Режим изоляции" xmlns="http://www.w3.org/2000/svg" viewBox="0 0 447.23 463.98"><defs><style>.cls-1{fill:#1fb3d5;}</style></defs><title>roulette</title><path class="cls-1" d="M784.4-65A224,224,0,0,0,923.66-272.27a224.61,224.61,0,0,0-168.21-216.8l7-10.94a8,8,0,0,0-2.51-11,8,8,0,0,0-4.24-1.23h-112a8,8,0,0,0-8,8A8,8,0,0,0,636.9-500l7,10.93A224.33,224.33,0,0,0,492.52-356.78S476.43-325,476.43-272.27s15.87,84.66,15.87,84.66C539.11-73.09,669.88-18.2,784.4-65ZM658.22-496.27h82.87l-41.43,65.09ZM639.77-106.78l59.89-144.59,59.88,144.59A175.9,175.9,0,0,1,639.77-106.78Zm45.1-150.71L625-112.94a177.07,177.07,0,0,1-84.68-84.68h0Zm-6.12-14.78L534.16-212.38a174.77,174.77,0,0,1,.14-119.72ZM540.46-346.88A177,177,0,0,1,625-431.47l59.84,144.41Zm174,89.39L859-197.62a177.07,177.07,0,0,1-84.68,84.68Zm6.12-14.78L865-332.1a174.65,174.65,0,0,1,.14,119.72Zm-6.13-14.79,59.85-144.41a177,177,0,0,1,84.58,84.59Zm-14.77-6.12L639.81-437.66a175,175,0,0,1,31.54-8.21L692.9-412A8,8,0,0,0,704-409.54a8,8,0,0,0,2.46-2.46L728-445.87a175,175,0,0,1,31.54,8.21Zm-208,20.91A208.45,208.45,0,0,1,652.91-474.83l9.17,14.4c-104,20.75-171.46,121.87-150.71,225.86S633.24-63.1,737.23-83.86,908.7-205.73,887.94-309.72A192,192,0,0,0,737.23-460.43l9.18-14.4C858.31-449,928.07-337.32,902.23-225.41S764.71-43.75,652.81-69.6A207.93,207.93,0,0,1,491.66-272.27Z" transform="translate(-476.43 512.27)"/></svg>