<?xml version="1.0" encoding="iso-8859-1"?>
<!-- Uploaded to: SVG Repo, www.svgrepo.com, Generator: SVG Repo Mixer Tools -->
<!DOCTYPE svg PUBLIC "-//W3C//DTD SVG 1.1//EN" "http://www.w3.org/Graphics/SVG/1.1/DTD/svg11.dtd">
<svg fill="#000000" height="800px" width="800px" version="1.1" id="Capa_1" xmlns="http://www.w3.org/2000/svg" xmlns:xlink="http://www.w3.org/1999/xlink" 
	 viewBox="0 0 512 512" xml:space="preserve">
<g>
	<path d="M456,232c0-47.576-16.991-93.676-47.844-129.807c-27.703-32.444-65.031-55.167-106.165-64.871l23.665-23.666
		c2.288-2.288,2.973-5.729,1.734-8.718S323.236,0,320,0H192c-3.236,0-6.153,1.949-7.391,4.938s-0.554,6.43,1.734,8.718
		l23.665,23.665c-41.122,9.702-78.441,32.415-106.143,64.847C72.999,138.303,56,184.412,56,232c0,87.908,57.01,162.751,136,189.499
		V456h-53c-6.065,0-11,4.935-11,11v37c0,4.418,3.582,8,8,8h240c4.418,0,8-3.582,8-8v-37c0-6.065-4.935-11-11-11h-53v-34.501
		C398.99,394.751,456,319.908,456,232z M300.687,16L256,60.687L211.313,16H300.687z M321.678,118.242
		c1.26,0.728,2.635,1.073,3.993,1.073c2.765,0,5.454-1.435,6.936-4.001l6.19-10.722c17.79,11.601,33.011,26.821,44.611,44.611
		l-81.552,47.084c-2.932,1.693-4.379,4.961-3.906,8.117c-0.423,1.797-0.235,3.747,0.682,5.514c3.562,6.86,5.367,14.29,5.367,22.082
		c0,26.467-21.533,48-48,48s-48-21.533-48-48s21.533-48,48-48c7.636,0,14.932,1.737,21.685,5.164
		c1.634,0.83,3.416,1.036,5.088,0.723c0.662,0.172,1.336,0.258,2.005,0.258c2.765,0,5.454-1.435,6.936-4.001l25.608-44.354
		c2.209-3.826,0.898-8.719-2.928-10.928c-3.826-2.21-8.719-0.899-10.928,2.928l-22.643,39.22c-5.396-2.28-11.019-3.791-16.821-4.508
		V80.21c21.848,1.138,42.489,6.912,60.957,16.353l-6.207,10.751C316.541,111.14,317.852,116.033,321.678,118.242z M360,240h47.79
		c-1.139,21.848-6.912,42.489-16.353,60.957l-76.448-44.137c2.231-5.283,3.755-10.931,4.493-16.82H328c4.418,0,8-3.582,8-8
		s-3.582-8-8-8h-8.508c-0.73-5.788-2.246-11.463-4.497-16.823l76.442-44.134c9.441,18.468,15.214,39.109,16.353,60.957H360
		c-4.418,0-8,3.582-8,8S355.582,240,360,240z M338.797,359.408l-44.137-76.447c4.635-3.525,8.776-7.666,12.301-12.301l76.447,44.137
		C371.807,332.587,356.587,347.807,338.797,359.408z M187.043,367.437l44.137-76.448c5.283,2.231,10.931,3.755,16.82,4.493v88.308
		C226.152,382.651,205.511,376.878,187.043,367.437z M128.592,314.797l76.447-44.137c3.525,4.635,7.666,8.776,12.301,12.301
		l-44.137,76.447C155.413,347.807,140.193,332.587,128.592,314.797z M173.203,104.592l44.137,76.447
		c-4.635,3.525-8.776,7.666-12.301,12.301l-76.447-44.137C140.193,131.413,155.413,116.193,173.203,104.592z M248,168.518
		c-5.889,0.738-11.537,2.261-16.82,4.493l-44.137-76.448C205.511,87.122,226.152,81.349,248,80.21V168.518z M120.563,163.043
		l76.448,44.137c-2.231,5.283-3.755,10.931-4.493,16.82H104.21C105.349,202.152,111.122,181.511,120.563,163.043z M192.518,240
		c0.738,5.889,2.262,11.537,4.493,16.82l-76.448,44.137c-9.441-18.468-15.214-39.109-16.353-60.957H192.518z M264,295.482
		c5.889-0.738,11.537-2.262,16.82-4.493l44.137,76.448c-18.468,9.441-39.109,15.214-60.957,16.353V295.482z M72,232
		c0-43.781,15.637-86.2,44.031-119.44c27.692-32.419,65.818-54.274,107.518-61.697l14.14,14.14
		c-23.465,2.555-45.496,9.954-65.062,21.186c-0.211,0.098-0.421,0.202-0.626,0.32c-0.251,0.145-0.49,0.303-0.72,0.47
		c-24.89,14.596-45.706,35.412-60.302,60.302c-0.167,0.229-0.325,0.469-0.47,0.72c-0.119,0.207-0.224,0.418-0.323,0.631
		C96.075,173.213,88,201.681,88,232s8.075,58.787,22.185,83.369c0.099,0.213,0.203,0.424,0.323,0.631
		c0.114,0.197,0.247,0.375,0.375,0.558c14.601,24.962,35.454,45.836,60.398,60.464c0.229,0.167,0.468,0.325,0.72,0.47
		c0.146,0.084,0.298,0.146,0.446,0.219C197.07,391.886,225.605,400,256,400c30.395,0,58.931-8.114,83.555-22.289
		c0.148-0.074,0.3-0.135,0.445-0.219c0.251-0.145,0.49-0.303,0.72-0.47c24.944-14.628,45.797-35.502,60.398-60.464
		c0.127-0.184,0.261-0.361,0.375-0.558c0.119-0.207,0.224-0.418,0.323-0.631C415.925,290.787,424,262.319,424,232
		s-8.075-58.787-22.185-83.369c-0.099-0.213-0.203-0.424-0.323-0.631c-0.145-0.251-0.303-0.49-0.47-0.719
		c-14.596-24.89-35.412-45.706-60.302-60.302c-0.229-0.167-0.468-0.325-0.72-0.47c-0.208-0.12-0.42-0.225-0.634-0.325
		c-19.565-11.229-41.593-18.626-65.055-21.181l14.14-14.14c41.71,7.425,79.845,29.29,107.538,61.72
		C424.37,145.82,440,188.229,440,232c0,101.458-82.542,184-184,184S72,333.458,72,232z M368,496H144v-24h224V496z M304,456h-96
		v-29.837c15.384,3.804,31.458,5.837,48,5.837s32.616-2.033,48-5.837V456z"/>
	<path d="M283.512,216.908l-13.158-3.879l-7.755-11.315c-1.492-2.177-3.96-3.478-6.599-3.478s-5.107,1.301-6.599,3.478
		l-7.755,11.315l-13.158,3.879c-2.531,0.746-4.531,2.692-5.346,5.201s-0.341,5.259,1.268,7.351l8.365,10.872l-0.377,13.712
		c-0.072,2.638,1.16,5.142,3.295,6.692s4.896,1.949,7.382,1.065L256,257.206l12.925,4.596c0.872,0.31,1.778,0.462,2.68,0.462
		c1.667,0,3.317-0.521,4.703-1.528c2.135-1.551,3.367-4.055,3.295-6.692l-0.377-13.712l8.365-10.872
		c1.609-2.091,2.083-4.841,1.268-7.351S286.043,217.654,283.512,216.908z M264.81,232.83c-1.122,1.458-1.707,3.259-1.657,5.099
		l0.135,4.887l-4.607-1.638c-0.867-0.308-1.773-0.462-2.68-0.462s-1.813,0.154-2.68,0.462l-4.607,1.638l0.135-4.887
		c0.05-1.839-0.535-3.64-1.657-5.099l-2.982-3.875l4.69-1.383c1.765-0.52,3.296-1.633,4.337-3.151l2.764-4.033l2.764,4.033
		c1.041,1.518,2.572,2.631,4.337,3.151l4.69,1.383L264.81,232.83z"/>
</g>
</svg>